<svg width="142" height="20" viewBox="0 0 142 20" fill="none" xmlns="http://www.w3.org/2000/svg">
<path d="M5.616 19V4.48H0.552V1.48H14.088V4.48H9.024V19H5.616ZM24.5248 19.456C22.9408 19.456 21.5648 19.176 20.3968 18.616C19.2288 18.056 18.2608 17.328 17.4928 16.432C16.7408 15.52 16.1808 14.544 15.8128 13.504C15.4448 12.448 15.2608 11.432 15.2608 10.456V9.928C15.2608 8.856 15.4528 7.792 15.8368 6.736C16.2208 5.68 16.7968 4.72 17.5648 3.856C18.3488 2.976 19.3168 2.28 20.4688 1.768C21.6208 1.24 22.9728 0.975999 24.5248 0.975999C26.0448 0.975999 27.3808 1.24 28.5328 1.768C29.7008 2.28 30.6688 2.976 31.4368 3.856C32.2048 4.72 32.7808 5.68 33.1648 6.736C33.5648 7.792 33.7648 8.856 33.7648 9.928V10.456C33.7648 11.432 33.5728 12.448 33.1888 13.504C32.8208 14.544 32.2528 15.52 31.4848 16.432C30.7328 17.328 29.7728 18.056 28.6048 18.616C27.4528 19.176 26.0928 19.456 24.5248 19.456ZM24.5248 16.288C25.7088 16.288 26.7328 16.016 27.5968 15.472C28.4608 14.912 29.1248 14.168 29.5888 13.24C30.0688 12.312 30.3088 11.304 30.3088 10.216C30.3088 9.064 30.0688 8.032 29.5888 7.12C29.1248 6.192 28.4608 5.464 27.5968 4.936C26.7328 4.408 25.7088 4.144 24.5248 4.144C23.3248 4.144 22.2928 4.408 21.4288 4.936C20.5648 5.464 19.8928 6.192 19.4128 7.12C18.9488 8.032 18.7168 9.064 18.7168 10.216C18.7168 11.304 18.9488 12.312 19.4128 13.24C19.8768 14.168 20.5408 14.912 21.4048 15.472C22.2848 16.016 23.3248 16.288 24.5248 16.288ZM36.0287 13.72V10.792H45.7487V13.72H36.0287ZM49.1288 19.096V1.36H55.4648C57.0488 1.36 58.4248 1.6 59.5928 2.08C60.7768 2.544 61.7608 3.184 62.5448 4C63.3448 4.8 63.9368 5.712 64.3208 6.736C64.7208 7.76 64.9208 8.824 64.9208 9.928V10.456C64.9208 11.512 64.7208 12.552 64.3208 13.576C63.9368 14.6 63.3448 15.528 62.5448 16.36C61.7608 17.192 60.7768 17.856 59.5928 18.352C58.4248 18.848 57.0488 19.096 55.4648 19.096H49.1288ZM55.6808 4.528H52.5368V15.928H55.6808C56.8808 15.928 57.9128 15.688 58.7768 15.208C59.6408 14.712 60.3048 14.032 60.7688 13.168C61.2328 12.304 61.4648 11.312 61.4648 10.192C61.4648 8.448 60.9528 7.072 59.9288 6.064C58.9048 5.04 57.4888 4.528 55.6808 4.528ZM76.2045 19.456C74.6205 19.456 73.2445 19.176 72.0765 18.616C70.9085 18.056 69.9405 17.328 69.1725 16.432C68.4205 15.52 67.8605 14.544 67.4925 13.504C67.1245 12.448 66.9405 11.432 66.9405 10.456V9.928C66.9405 8.856 67.1325 7.792 67.5165 6.736C67.9005 5.68 68.4765 4.72 69.2445 3.856C70.0285 2.976 70.9965 2.28 72.1485 1.768C73.3005 1.24 74.6525 0.975999 76.2045 0.975999C77.7245 0.975999 79.0605 1.24 80.2125 1.768C81.3805 2.28 82.3485 2.976 83.1165 3.856C83.8845 4.72 84.4605 5.68 84.8445 6.736C85.2445 7.792 85.4445 8.856 85.4445 9.928V10.456C85.4445 11.432 85.2525 12.448 84.8685 13.504C84.5005 14.544 83.9325 15.52 83.1645 16.432C82.4125 17.328 81.4525 18.056 80.2845 18.616C79.1325 19.176 77.7725 19.456 76.2045 19.456ZM76.2045 16.288C77.3885 16.288 78.4125 16.016 79.2765 15.472C80.1405 14.912 80.8045 14.168 81.2685 13.24C81.7485 12.312 81.9885 11.304 81.9885 10.216C81.9885 9.064 81.7485 8.032 81.2685 7.12C80.8045 6.192 80.1405 5.464 79.2765 4.936C78.4125 4.408 77.3885 4.144 76.2045 4.144C75.0045 4.144 73.9725 4.408 73.1085 4.936C72.2445 5.464 71.5725 6.192 71.0925 7.12C70.6285 8.032 70.3965 9.064 70.3965 10.216C70.3965 11.304 70.6285 12.312 71.0925 13.24C71.5565 14.168 72.2205 14.912 73.0845 15.472C73.9645 16.016 75.0045 16.288 76.2045 16.288Z" fill="#FF3F3F"/>
<path d="M92.1898 19L98.1658 1.48H103.734L109.878 19H106.374L104.766 14.344H97.1338L95.5978 19H92.1898ZM98.0938 11.464H103.782L101.358 4.336H100.47L98.0938 11.464ZM112.48 19V1.36H118.528C120.736 1.36 122.44 1.896 123.64 2.968C124.856 4.024 125.464 5.464 125.464 7.288V7.672C125.464 9.496 124.856 10.944 123.64 12.016C122.44 13.088 120.736 13.624 118.528 13.624H115.888V19H112.48ZM118.816 4.312H115.888V10.672H118.816C119.84 10.672 120.624 10.376 121.168 9.784C121.728 9.192 122.008 8.424 122.008 7.48C122.008 6.536 121.728 5.776 121.168 5.2C120.624 4.608 119.84 4.312 118.816 4.312ZM128.277 19V1.36H134.325C136.533 1.36 138.237 1.896 139.437 2.968C140.653 4.024 141.261 5.464 141.261 7.288V7.672C141.261 9.496 140.653 10.944 139.437 12.016C138.237 13.088 136.533 13.624 134.325 13.624H131.685V19H128.277ZM134.613 4.312H131.685V10.672H134.613C135.637 10.672 136.421 10.376 136.965 9.784C137.525 9.192 137.805 8.424 137.805 7.48C137.805 6.536 137.525 5.776 136.965 5.2C136.421 4.608 135.637 4.312 134.613 4.312Z" fill="white"/>
</svg>
